# xmcd CD database file
#
# Track frame offsets:
#	151
#	26182
#	53709
#	77731
#	106193
#	144907
#	156935
#	175475
#	196269
#	217052
#	231587
#	242765
#	257007
#	281524
#	293763
#	319652
#	334242
#
# Disc length: 4719 seconds
#
# Revision: 0
# Processed by: cddbd v1.5.2PL0 Copyright (c) Steve Scherf et al.
# Submitted via: CDex 1.51
#
DISCID=fd126d11
DTITLE=Roy Eldridge and Benny Carter - Urbane Jazz
DYEAR=2010
DGENRE=Jazz
TTITLE0=I Still Love Him So
TTITLE1=The Moon Is Low
TTITLE2=I Missed My Hat
TTITLE3=Ballad Medley: I Remember you/Chelsea Bridge/I've Got The World On A String
TTITLE4=Polite Blues
TTITLE5=Close Your Eyes
TTITLE6=Where's Art
TTITLE7=I Don't Know
TTITLE8=Striding
TTITLE9=Wailing
TTITLE10=The Moon Is Low [78 Version]
TTITLE11=The Moon Is Low [alt tk]
TTITLE12=I Missed My Hat [alt tk]
TTITLE13=Close Your Eyes [alt tk]
TTITLE14=Ballad Medley: I Remember you/Chelsea Bridge/I've Got The World On A String [alt tk]
TTITLE15=Les Tricheurs
TTITLE16=Phil's Tune
EXTD=YEAR: 2010
EXTT0=
EXTT1=
EXTT2=
EXTT3=
EXTT4=
EXTT5=
EXTT6=
EXTT7=
EXTT8=
EXTT9=
EXTT10=
EXTT11=
EXTT12=
EXTT13=
EXTT14=
EXTT15=
EXTT16=
PLAYORDER=
